#!OML:ASF F:\VICON\USERDATA\INSTALL\rory3\rory3.ASF
:FULLY-SPECIFIED
:DEGREES
1
root 1.3188903523245168 18.028389594954433 -29.61708299337606 -4.138768132345496 -2.1590967295980343 0.2968019004257534
lfemur -8.904440364815764 -0.6554296337035572 -23.566494111838573
ltibia 22.34690642337617
lfoot -11.912395734673485 -5.416095009259321
ltoes -5.189857400599091
rfemur -18.217596927790392 -0.670714247939034 21.420406749679973
rtibia 71.2065815512934
rfoot -3.3122767112476987 -3.3362071631534804
rtoes 1.08027376138913
lowerback 11.667786091247256 0.681930248269301 -0.9316713724797416
upperback 1.2504401972697907 0.8239138280268866 0.7031970393924551
thorax -5.2574919768629105 0.4318654562961345 1.129900043723876
lowerneck -16.175396040153977 -2.8010215686336553 -1.5538146052602482
upperneck 24.921086388413084 -3.2850433334355325 -0.9240564298100431
head 10.69918629517514 -1.7643412563406369 -0.5248287349188412
lclavicle -1.3874280240672405e-15 -1.8436985656384944e-15
lhumerus -32.93529539954856 3.843468954269831 81.33499977031448
lradius 19.865808456973603
lwrist 0.6037975891670464
lhand -28.10919760380945 20.43240910898195
lfingers 7.125019999999999
lthumb -1.4913376035781196 50.40700907809043
rclavicle -1.3874280240672405e-15 -1.8436985656384944e-15
rhumerus -25.651605966417307 -20.450403417780063 -78.34429546222168
rradius 26.959595413492625
rwrist 4.537952457793533
rhand -18.09020060386613 23.77919189984372
rfingers 7.125019999999999
rthumb 8.183289394945904 -6.0422880947806155
2
root 1.322520264164365 17.982292455690384 -28.99338327019631 -4.060268749641224 -0.5752252335536211 0.6014950606854756
lfemur -7.464801331508254 -0.5244531469241203 -24.014093405912046
ltibia 23.540505733962195
lfoot -14.981492530029719 -6.0784839783401186
ltoes -5.654916692389299
rfemur -22.383993954218408 -1.9414103044665385 21.235607032535263
rtibia 69.45078253826578
rfoot -6.886832379350778 -3.3668670865397705
rtoes 1.1972535733977607
lowerback 12.008182607558789 -0.5318625143456939 -2.614070979329798
upperback 0.026931777258929118 -0.950900355387013 1.7773381335148808
thorax -6.646493627399469 -0.3495230072173858 3.523749941399891
lowerneck -11.838952269642125 -2.165157587850805 -3.0928798026564115
upperneck 23.921192906501915 -2.124068883412429 -1.005588526811659
head 9.526316866153213 -1.3837160303179703 -0.07245787229430838
lclavicle -1.3874280268842019e-15 -1.8436986230952017e-15
lhumerus -34.026593473937396 4.1288084003450125 81.90959649137558
lradius 21.755304988894554
lwrist 1.64183395079196
lhand -28.270196961287255 22.272004006767396
lfingers 7.125019999999999
lthumb -1.6468569609213142 52.245403980121246
rclavicle -1.3874280268842019e-15 -1.8436986230952017e-15
rhumerus -29.294900676012 -16.69870802985161 -77.19779726429617
rradius 27.597694181889633
rwrist 2.968094928716043
rhand -18.085800639752726 23.354594325076594
rfingers 7.125019999999999
rthumb 8.187529359114658 -6.466815670496158
3
root 1.3224102668358866 17.922996135552467 -28.37278354564053 -4.119038287495108 0.5612013823638462 1.1283206087440156
lfemur -5.521032636715004 -0.16271256437477444 -24.573292523977074
ltibia 24.38540524595455
lfoot -18.184889185154724 -6.791622868435518
ltoes -6.548715331279093
rfemur -25.603491656451723 -2.838717519767311 20.822507664827015
rtibia 65.38928482132094
rfoot -9.27009949114077 -5.383752046701759
rtoes 0.610105516968853
lowerback 12.276179864819328 -0.4379551516464986 -2.7402606498182243
upperback 0.7477221324015405 -0.8819886588859478 1.2352341422448225
thorax -6.042981600119931 -0.3418590811359004 3.0026221406196036
lowerneck -14.608216361347068 -2.7850519709531154 -2.0143971828019778
upperneck 24.25289074423562 -3.20330442823834 -0.8332214358414785
head 10.163695687154574 -1.7633812936016136 -0.3698213735749176
lclavicle -1.3874280463002685e-15 -1.8436985988664935e-15
lhumerus -29.97570062179613 -1.321741018592152 82.75029169394442
lradius 23.827201186029807
lwrist 4.017527912495037
lhand -27.934298301804052 28.92178556324367
lfingers 7.125019999999999
lthumb -1.3224383015252303 58.89748553353685
rclavicle -1.3874280463002685e-15 -1.8436985988664935e-15
rhumerus -29.613600213230413 -19.830604179717845 -77.02639753370354
rradius 27.4420944822147
rwrist 3.1047847135692135
rhand -18.2139995941478 23.88989126754679
rfingers 7.125019999999999
rthumb 8.063760405065953 -5.936238700380617
4
root 1.31865035815329 17.878598890794905 -27.730083830893697 -3.852600382683331 1.8214944114356884 2.010848176480873
lfemur -3.3090541220199787 -0.11662974494650413 -25.483791087993843
ltibia 23.98530547704918
lfoot -20.30828696797685 -7.501901762982088
ltoes -6.411365540440524
rfemur -28.143589843574837 -3.4062357585337093 19.93310902614457
rtibia 59.24958827257629
rfoot -11.303497026927218 -7.74723614077395
rtoes 1.0387938280490907
lowerback 11.92778343038062 -0.7521180195852615 -3.4875986983388767
upperback 1.1356324661954846 -1.403041364080458 0.9447363621486367
thorax -5.39041022094098 -0.6021625705104969 3.190641347156763
lowerneck -15.80970078202503 -2.8420105360053127 -1.6273634199939473
upperneck 23.99899239934389 -3.411001646362353 -0.6245457470025635
head 10.298693319428665 -1.7948400725283504 -0.40560730266695566
lclavicle -1.387428047790233e-15 -1.8436985940207308e-15
lhumerus -27.097705700059578 -4.0918956409360945 82.48569320387695
lradius 26.256796726625282
lwrist 5.93275304457088
lhand -27.71429917978469 24.495297840343394
lfingers 7.125019999999999
lthumb -1.109979179475751 54.47219780510071
rclavicle -1.387428047790233e-15 -1.8436985940207308e-15
rhumerus -30.32069918645644 -21.365902292329874 -76.71429802426391
rradius 27.16199502283843
rwrist 3.0625147801011976
rhand -17.77550317057339 23.93359101794086
rfingers 7.125019999999999
rthumb 8.48697682853281 -5.875909044895918
5
root 1.3101405648317743 17.845500944815733 -27.085184117123184 -3.2307252729237304 2.313742079299119 2.4782268883760667
lfemur -0.9431197107036482 -0.02569350127268777 -25.976290311253905
ltibia 22.68220622970953
lfoot -20.9183863309324 -7.63330155847602
ltoes -4.0247891748088325
rfemur -30.00718851351803 -2.648488110124412 19.324209958128208
rtibia 50.82149301018977
rfoot -10.800397636618303 -10.042990404090986
rtoes 2.4993514808728095
lowerback 11.758485163014164 -0.7985717043280776 -3.8413477746149693
upperback 1.382177593765998 -1.5054409130952813 0.8532403762984664
thorax -5.021445095169952 -0.6586070261041002 3.3013908797809055
lowerneck -17.94707306729934 -3.096454125849618 -1.5263250482646074
upperneck 24.580788606740544 -3.782096675952249 -0.5413206687513458
head 10.926082315641745 -1.9355746099138853 -0.49018077177272557
lclavicle -1.3874280146851146e-15 -1.8436986044044903e-15
lhumerus -23.88751136449368 -5.553812802940134 81.70709764693619
lradius 28.02209348650889
lwrist 6.105882604527804
lhand -29.159293413048243 22.54000326345717
lfingers 7.125019999999999
lthumb -2.5055634124656407 52.50500326023832
rclavicle -1.3874280146851146e-15 -1.8436986044044903e-15
rhumerus -30.938698289063836 -23.836199255519812 -75.85869936910031
rradius 26.420796453435727
rwrist 3.8554035321110955
rhand -17.506905361286986 24.005690606119643
rfingers 7.125019999999999
rthumb 8.746204637840766 -5.793139517555153
